<svg xmlns="http://www.w3.org/2000/svg" width="1200" height="340" viewBox="0 0 1200 340" role="img"><defs><linearGradient id="bg" x1="0" y1="0" x2="1" y2="1"><stop offset="0%" stop-color="#0B1020"/><stop offset="55%" stop-color="#111A2E"/><stop offset="100%" stop-color="#0A0F1C"/></linearGradient><radialGradient id="vign" cx="0.5" cy="0.1" r="1"><stop offset="0%" stop-color="#1B2947" stop-opacity="0.55"/><stop offset="100%" stop-color="#000000" stop-opacity="0"/></radialGradient><radialGradient id="g0" cx="0.5" cy="0.5" r="0.5"><stop offset="0%" stop-color="#5B8DEF" stop-opacity="0.42"/><stop offset="100%" stop-color="#5B8DEF" stop-opacity="0"/></radialGradient><radialGradient id="g1" cx="0.5" cy="0.5" r="0.5"><stop offset="0%" stop-color="#F0A73C" stop-opacity="0.42"/><stop offset="100%" stop-color="#F0A73C" stop-opacity="0"/></radialGradient><radialGradient id="g2" cx="0.5" cy="0.5" r="0.5"><stop offset="0%" stop-color="#2DD4A7" stop-opacity="0.42"/><stop offset="100%" stop-color="#2DD4A7" stop-opacity="0"/></radialGradient></defs><rect width="1200" height="340" rx="0" fill="url(#bg)"/><rect width="1200" height="340" rx="0" fill="url(#vign)"/><line x1="0" y1="0" x2="0" y2="340" stroke="#2A3B5C" stroke-width="1" opacity="0.3"/><line x1="40" y1="0" x2="40" y2="340" stroke="#2A3B5C" stroke-width="1" opacity="0.3"/><line x1="80" y1="0" x2="80" y2="340" stroke="#2A3B5C" stroke-width="1" opacity="0.3"/><line x1="120" y1="0" x2="120" y2="340" stroke="#2A3B5C" stroke-width="1" opacity="0.3"/><line x1="160" y1="0" x2="160" y2="340" stroke="#2A3B5C" stroke-width="1" opacity="0.3"/><line x1="200" y1="0" x2="200" y2="340" stroke="#2A3B5C" stroke-width="1" opacity="0.3"/><line x1="240" y1="0" x2="240" y2="340" stroke="#2A3B5C" stroke-width="1" opacity="0.3"/><line x1="280" y1="0" x2="280" y2="340" stroke="#2A3B5C" stroke-width="1" opacity="0.3"/><line x1="320" y1="0" x2="320" y2="340" stroke="#2A3B5C" stroke-width="1" opacity="0.3"/><line x1="360" y1="0" x2="360" y2="340" stroke="#2A3B5C" stroke-width="1" opacity="0.3"/><line x1="400" y1="0" x2="400" y2="340" stroke="#2A3B5C" stroke-width="1" opacity="0.3"/><line x1="440" y1="0" x2="440" y2="340" stroke="#2A3B5C" stroke-width="1" opacity="0.3"/><line x1="480" y1="0" x2="480" y2="340" stroke="#2A3B5C" stroke-width="1" opacity="0.3"/><line x1="520" y1="0" x2="520" y2="340" stroke="#2A3B5C" stroke-width="1" opacity="0.3"/><line x1="560" y1="0" x2="560" y2="340" stroke="#2A3B5C" stroke-width="1" opacity="0.3"/><line x1="600" y1="0" x2="600" y2="340" stroke="#2A3B5C" stroke-width="1" opacity="0.3"/><line x1="640" y1="0" x2="640" y2="340" stroke="#2A3B5C" stroke-width="1" opacity="0.3"/><line x1="680" y1="0" x2="680" y2="340" stroke="#2A3B5C" stroke-width="1" opacity="0.3"/><line x1="720" y1="0" x2="720" y2="340" stroke="#2A3B5C" stroke-width="1" opacity="0.3"/><line x1="760" y1="0" x2="760" y2="340" stroke="#2A3B5C" stroke-width="1" opacity="0.3"/><line x1="800" y1="0" x2="800" y2="340" stroke="#2A3B5C" stroke-width="1" opacity="0.3"/><line x1="840" y1="0" x2="840" y2="340" stroke="#2A3B5C" stroke-width="1" opacity="0.3"/><line x1="880" y1="0" x2="880" y2="340" stroke="#2A3B5C" stroke-width="1" opacity="0.3"/><line x1="920" y1="0" x2="920" y2="340" stroke="#2A3B5C" stroke-width="1" opacity="0.3"/><line x1="960" y1="0" x2="960" y2="340" stroke="#2A3B5C" stroke-width="1" opacity="0.3"/><line x1="1000" y1="0" x2="1000" y2="340" stroke="#2A3B5C" stroke-width="1" opacity="0.3"/><line x1="1040" y1="0" x2="1040" y2="340" stroke="#2A3B5C" stroke-width="1" opacity="0.3"/><line x1="1080" y1="0" x2="1080" y2="340" stroke="#2A3B5C" stroke-width="1" opacity="0.3"/><line x1="1120" y1="0" x2="1120" y2="340" stroke="#2A3B5C" stroke-width="1" opacity="0.3"/><line x1="1160" y1="0" x2="1160" y2="340" stroke="#2A3B5C" stroke-width="1" opacity="0.3"/><line x1="1200" y1="0" x2="1200" y2="340" stroke="#2A3B5C" stroke-width="1" opacity="0.3"/><line x1="0" y1="0" x2="1200" y2="0" stroke="#2A3B5C" stroke-width="1" opacity="0.3"/><line x1="0" y1="40" x2="1200" y2="40" stroke="#2A3B5C" stroke-width="1" opacity="0.3"/><line x1="0" y1="80" x2="1200" y2="80" stroke="#2A3B5C" stroke-width="1" opacity="0.3"/><line x1="0" y1="120" x2="1200" y2="120" stroke="#2A3B5C" stroke-width="1" opacity="0.3"/><line x1="0" y1="160" x2="1200" y2="160" stroke="#2A3B5C" stroke-width="1" opacity="0.3"/><line x1="0" y1="200" x2="1200" y2="200" stroke="#2A3B5C" stroke-width="1" opacity="0.3"/><line x1="0" y1="240" x2="1200" y2="240" stroke="#2A3B5C" stroke-width="1" opacity="0.3"/><line x1="0" y1="280" x2="1200" y2="280" stroke="#2A3B5C" stroke-width="1" opacity="0.3"/><line x1="0" y1="320" x2="1200" y2="320" stroke="#2A3B5C" stroke-width="1" opacity="0.3"/><circle cx="140" cy="60" r="300" fill="url(#g0)"/><circle cx="620" cy="330" r="340" fill="url(#g1)"/><circle cx="1080" cy="40" r="300" fill="url(#g2)"/><text x="64" y="92" font-family="Segoe UI,-apple-system,BlinkMacSystemFont,Helvetica Neue,Arial,sans-serif" font-size="15" fill="#93A2BC" font-weight="600" text-anchor="start" letter-spacing="5">PAUL RUKWARO</text><text x="64" y="150" font-family="Segoe UI,-apple-system,BlinkMacSystemFont,Helvetica Neue,Arial,sans-serif" font-size="46" fill="#E8EEF7" font-weight="700" text-anchor="start">Professional Engineering Portfolio</text><rect x="64" y="172" width="72" height="4" rx="2" fill="#5B8DEF"/><rect x="140" y="172" width="36" height="4" rx="2" fill="#F0A73C"/><rect x="180" y="172" width="36" height="4" rx="2" fill="#2DD4A7"/><text x="64" y="210" font-family="Segoe UI,-apple-system,BlinkMacSystemFont,Helvetica Neue,Arial,sans-serif" font-size="17" fill="#93A2BC" font-weight="400" text-anchor="start">Fifty systems built end to end, each one designed to be verified rather than demonstrated.</text><rect x="64" y="244" width="248" height="62" rx="10" fill="#0E1729" fill-opacity="0.72" stroke="#243352" stroke-width="1"/><text x="84" y="279" font-family="SFMono-Regular,Consolas,Liberation Mono,Menlo,monospace" font-size="27" fill="#E8EEF7" font-weight="700" text-anchor="start">50</text><text x="84" y="297" font-family="Segoe UI,-apple-system,BlinkMacSystemFont,Helvetica Neue,Arial,sans-serif" font-size="12" fill="#5C6B85" font-weight="500" text-anchor="start" letter-spacing="1.2">projects</text><rect x="332" y="244" width="248" height="62" rx="10" fill="#0E1729" fill-opacity="0.72" stroke="#243352" stroke-width="1"/><text x="352" y="279" font-family="SFMono-Regular,Consolas,Liberation Mono,Menlo,monospace" font-size="27" fill="#E8EEF7" font-weight="700" text-anchor="start">273K</text><text x="352" y="297" font-family="Segoe UI,-apple-system,BlinkMacSystemFont,Helvetica Neue,Arial,sans-serif" font-size="12" fill="#5C6B85" font-weight="500" text-anchor="start" letter-spacing="1.2">lines of source</text><rect x="600" y="244" width="248" height="62" rx="10" fill="#0E1729" fill-opacity="0.72" stroke="#243352" stroke-width="1"/><text x="620" y="279" font-family="SFMono-Regular,Consolas,Liberation Mono,Menlo,monospace" font-size="27" fill="#E8EEF7" font-weight="700" text-anchor="start">5,346</text><text x="620" y="297" font-family="Segoe UI,-apple-system,BlinkMacSystemFont,Helvetica Neue,Arial,sans-serif" font-size="12" fill="#5C6B85" font-weight="500" text-anchor="start" letter-spacing="1.2">tests passing</text><rect x="868" y="244" width="248" height="62" rx="10" fill="#0E1729" fill-opacity="0.72" stroke="#243352" stroke-width="1"/><text x="888" y="279" font-family="SFMono-Regular,Consolas,Liberation Mono,Menlo,monospace" font-size="27" fill="#E8EEF7" font-weight="700" text-anchor="start">6</text><text x="888" y="297" font-family="Segoe UI,-apple-system,BlinkMacSystemFont,Helvetica Neue,Arial,sans-serif" font-size="12" fill="#5C6B85" font-weight="500" text-anchor="start" letter-spacing="1.2">languages</text></svg>