<svg xmlns="http://www.w3.org/2000/svg" width="1200" height="630" viewBox="0 0 1200 630">
  <defs><pattern id="grid" width="28" height="28" patternUnits="userSpaceOnUse"><path d="M28 0H0V28" fill="none" stroke="#d5ded2" stroke-width=".8"/></pattern></defs>
  <rect width="1200" height="630" fill="#f5f5f0"/>
  <rect x="0" y="0" width="1200" height="8" fill="#2452e8"/>
  <rect x="64" y="58" width="46" height="49" fill="#14231f"/>
  <text x="87" y="90" text-anchor="middle" fill="#f5f5f0" font-family="Segoe UI,Arial,sans-serif" font-size="17" font-weight="600">PR</text>
  <rect x="64" y="103" width="46" height="4" fill="#2452e8"/>
  <text x="127" y="90" fill="#14231f" font-family="Segoe UI,Arial,sans-serif" font-size="27" font-weight="600">Paul Rukwaro</text>
  <text x="64" y="179" fill="#2452e8" font-family="Consolas,monospace" font-size="14" letter-spacing="2">SENIOR SOFTWARE ENGINEER</text>
  <g font-family="Segoe UI,Arial,sans-serif" font-size="73" font-weight="600" letter-spacing="-3">
    <text x="60" y="272" fill="#14231f">Technical depth.</text>
    <text x="60" y="359" fill="#14231f">Clear direction.</text>
    <text x="60" y="446" fill="#2452e8">Dependable delivery.</text>
  </g>
  <path d="M64 504h1072" stroke="#cbd6c9"/>
  <text x="64" y="549" fill="#58645f" font-family="Segoe UI,Arial,sans-serif" font-size="21">Distributed systems. Databases. Cloud infrastructure.</text>
  <text x="64" y="583" fill="#58645f" font-family="Consolas,monospace" font-size="12" letter-spacing="1">EXPERIENCE / TECHNICAL LEADERSHIP / 50 ENGINEERING PROJECTS</text>
  <g transform="translate(805 145)">
    <rect x="-20" y="-20" width="350" height="320" fill="url(#grid)"/>
    <path d="M0 213 150 128 300 213 150 298Z" fill="#adc8af" stroke="#809e86"/>
    <path d="M0 213v18l150 85v-18zm300 0v18l-150 85v-18" fill="#90b397" stroke="#809e86"/>
    <path d="M0 134 150 49 300 134 150 219Z" fill="#edf1e7" stroke="#a1b59a"/>
    <path d="M0 134v18l150 85v-18zm300 0v18l-150 85v-18" fill="#cbd9c4" stroke="#a1b59a"/>
    <path d="M0 55 150-30 300 55 150 140Z" fill="#2452e8" stroke="#1533ae"/>
    <path d="M0 55v18l150 85v-18zm300 0v18l-150 85v-18" fill="#183dcc" stroke="#1533ae"/>
    <path d="M40 55 150-7 260 55 150 117Z" fill="none" stroke="#7895ff"/>
    <path d="M79 55 150 15 221 55 150 95Z" fill="none" stroke="#7895ff"/>
    <path d="M150 55v214" stroke="#a6bfff" stroke-dasharray="3 7" stroke-width="2"/>
    <circle cx="150" cy="55" r="7" fill="#c5ef9b" stroke="#1533ae" stroke-width="3"/>
  </g>
</svg>
